

<svg version="1.0" xmlns="http://www.w3.org/2000/svg"
 width="300.000000pt" height="300.000000pt" viewBox="0 0 300.000000 300.000000"
 preserveAspectRatio="xMidYMid meet">

<g transform="translate(0.000000,300.000000) scale(0.100000,-0.100000)"
fill="#D5FF00" stroke="none">
<path d="M1200 2079 c-19 -11 -34 -24 -32 -30 1 -5 -8 -13 -20 -18 -32 -12
-129 -116 -162 -174 -118 -201 -110 -459 20 -655 28 -43 38 -51 49 -42 11 9
14 5 17 -22 2 -26 10 -37 36 -49 18 -10 28 -19 22 -21 -22 -7 134 -98 213
-124 68 -22 101 -27 192 -27 95 0 121 3 194 28 87 30 179 83 221 129 16 18 19
25 8 21 -9 -4 -19 -2 -22 3 -3 5 9 12 26 16 35 7 68 32 68 53 0 7 5 13 10 13
19 0 70 93 95 170 13 42 26 107 30 145 l7 70 -143 -3 -144 -3 -27 -30 c-26
-29 -28 -30 -67 -18 -23 7 -41 16 -41 20 0 14 39 20 60 9 11 -6 20 -7 20 -3 0
4 14 22 30 40 17 18 30 34 30 37 0 14 -28 4 -45 -14 -21 -24 -31 -25 -67 -6
-25 13 -38 12 -38 -5 0 -4 12 -12 28 -17 19 -8 -37 -11 -203 -11 -210 0 -228
1 -202 15 38 20 24 38 -14 18 -29 -15 -32 -14 -65 11 -35 27 -45 55 -19 55 8
0 22 -10 31 -23 l18 -23 38 20 c42 23 53 52 16 40 -13 -3 -28 -11 -34 -16 -14
-10 -83 30 -84 50 0 17 30 15 50 -3 16 -14 21 -14 54 6 20 11 36 25 36 30 0
13 -34 11 -54 -4 -15 -11 -24 -10 -57 6 -22 10 -39 23 -39 27 0 20 24 21 51 1
16 -12 29 -18 29 -13 0 4 14 16 30 25 17 10 30 22 30 28 0 14 -31 11 -50 -6
-13 -12 -21 -12 -55 -1 -22 8 -41 19 -43 25 -6 19 27 24 51 8 20 -13 25 -12
54 10 18 14 31 29 28 33 -7 11 -42 1 -55 -15 -8 -10 -18 -10 -43 -2 -18 5 -38
12 -45 13 -7 2 -10 8 -7 14 8 13 48 13 61 1 5 -6 22 1 44 19 31 26 32 29 14
30 -12 0 -26 -6 -32 -13 -16 -19 -96 -14 -100 7 -4 18 37 23 54 6 7 -7 20 0
39 20 28 29 28 30 7 30 -13 0 -25 -6 -27 -12 -7 -17 -95 -18 -95 -2 0 17 29
25 48 15 13 -7 25 -3 45 14 15 13 27 27 27 30 0 11 -24 4 -41 -11 -22 -20
-102 -28 -96 -11 2 7 17 12 34 13 31 0 91 39 79 51 -3 4 -19 -2 -34 -13 -19
-14 -34 -18 -52 -13 l-25 7 28 1 c15 1 27 5 27 9 0 5 10 14 23 20 13 6 16 11
7 11 -8 0 -31 -9 -50 -20z m-30 -126 c6 -16 14 -37 19 -48 17 -38 24 -60 22
-69 -1 -4 2 -13 8 -20 9 -11 13 -42 12 -98 0 -15 4 -30 10 -33 5 -4 6 -12 2
-18 -4 -7 -8 -40 -9 -75 -1 -35 -4 -66 -8 -69 -3 -4 -6 -17 -6 -29 0 -13 -4
-26 -10 -29 -5 -3 -10 -19 -10 -35 0 -15 -4 -30 -10 -32 -5 -1 -11 -15 -12
-30 -1 -16 -8 -28 -15 -28 -7 0 -13 -10 -13 -23 0 -13 -4 -27 -9 -33 -24 -24
-11 -124 17 -124 9 0 30 -7 46 -15 29 -15 48 -12 45 8 -3 18 11 49 34 74 10
12 16 27 12 33 -4 6 3 21 14 32 14 13 20 26 16 39 -4 13 -1 21 10 25 13 5 15
14 11 36 -4 20 -1 30 9 34 9 4 15 19 15 37 0 62 14 67 199 67 161 0 167 -1
181 -22 7 -13 13 -33 11 -46 -1 -14 5 -29 15 -37 15 -11 16 -15 5 -28 -10 -13
-9 -19 8 -36 12 -12 17 -27 14 -40 -3 -14 0 -23 11 -27 9 -3 16 -17 16 -33 0
-16 8 -31 21 -39 15 -10 19 -20 15 -38 -4 -14 -2 -24 4 -24 6 0 18 -16 28 -36
l17 -36 -30 -25 c-41 -34 -148 -83 -215 -99 -123 -30 -292 -9 -406 49 -70 35
-81 50 -60 82 9 13 16 26 16 28 0 2 -17 4 -37 4 -46 1 -77 34 -71 75 3 16 -1
33 -9 39 -10 9 -13 7 -13 -9 0 -26 -35 -35 -53 -13 -40 45 -78 144 -82 214 -2
27 -9 70 -15 97 -12 50 -5 108 19 174 11 28 35 31 37 5 0 -8 2 -25 3 -39 l2
-25 13 25 c29 55 29 67 -4 86 -40 24 -38 33 8 27 38 -5 38 -5 52 38 l13 44 12
-40 c12 -39 13 -40 56 -38 l44 2 -24 -20 c-13 -11 -30 -23 -38 -27 -11 -7 -11
-14 2 -45 20 -49 19 -54 -7 -30 -13 11 -29 23 -36 27 -12 7 -72 -28 -72 -43 0
-4 30 -7 67 -6 l68 1 14 50 c7 27 20 53 27 57 23 13 16 24 -33 58 -27 18 -52
39 -56 46 -12 20 -28 16 -59 -14 -36 -34 -36 -19 0 38 29 44 85 99 103 99 5 0
14 -12 19 -27z m130 -414 c0 -5 11 -4 24 3 26 11 56 5 56 -11 0 -6 -18 -15
-41 -21 -44 -12 -44 -12 -85 47 -25 35 -6 50 22 18 13 -16 24 -32 24 -36z
m740 -16 c0 -13 3 -14 12 -5 7 7 27 12 46 12 l35 0 -7 -57 c-10 -86 -57 -220
-84 -237 -18 -11 -62 49 -62 84 0 11 -5 20 -10 20 -7 0 -6 8 1 23 11 19 10 20
-3 10 -13 -11 -17 -6 -28 30 -7 23 -16 55 -21 71 -16 51 -13 55 49 59 31 2 60
4 65 5 4 1 7 -6 7 -15z m-774 -32 c15 -26 21 -28 55 -24 31 5 39 2 39 -10 0
-10 -14 -18 -41 -22 -22 -4 -41 -5 -43 -3 -1 1 -12 16 -24 32 -23 30 -29 56
-13 56 6 0 18 -13 27 -29z m634 17 c0 -7 -9 -28 -21 -47 -19 -32 -22 -33 -62
-27 -49 8 -55 12 -39 28 9 9 20 10 42 1 18 -7 30 -7 30 -2 0 15 31 59 41 59 5
0 9 -6 9 -12z m-655 -80 c12 -29 18 -33 51 -33 49 0 56 -22 10 -31 -20 -3 -43
-4 -51 0 -29 11 -54 96 -29 96 3 0 11 -15 19 -32z m675 10 c0 -24 -46 -78 -65
-78 -30 0 -65 11 -65 20 0 14 38 22 58 11 15 -8 21 -3 35 30 16 36 37 45 37
17z m-699 -81 c10 -29 15 -32 44 -29 18 2 36 -1 40 -8 10 -17 1 -22 -44 -23
-36 -2 -41 1 -55 31 -9 18 -16 39 -16 47 0 27 18 16 31 -18z m719 12 c0 -11
-8 -34 -17 -51 -16 -27 -22 -29 -56 -25 -44 6 -52 11 -42 26 8 15 48 14 63 -1
9 -9 12 -8 12 4 0 26 18 68 30 68 5 0 10 -9 10 -21z m-745 -79 c6 -27 10 -30
47 -30 27 0 38 -4 36 -12 -3 -8 -21 -13 -43 -13 -33 0 -42 5 -58 33 -10 18
-16 39 -13 48 8 22 23 9 31 -26z m765 7 c0 -42 -27 -67 -71 -67 -28 0 -39 4
-36 13 2 6 20 12 40 12 19 0 34 2 32 3 -6 7 17 62 26 62 5 0 9 -10 9 -23z
m-796 -62 c4 -22 11 -32 20 -29 7 3 25 0 41 -6 39 -15 19 -33 -27 -25 -37 7
-58 35 -58 75 0 33 17 22 24 -15z m826 6 c0 -42 -66 -82 -100 -61 -20 12 -7
23 30 24 24 1 32 6 37 26 3 14 8 28 10 33 7 12 23 -3 23 -22z m21 -33 c5 -47
-27 -78 -79 -78 -43 0 -33 14 18 27 28 7 36 15 38 36 3 27 21 38 23 15z m-907
-52 c6 -29 12 -35 41 -40 40 -8 47 -26 11 -26 -37 0 -76 37 -76 71 0 40 16 37
24 -5z"/>
<path d="M1856 2072 c-7 -12 38 -47 56 -44 9 2 19 -2 23 -7 10 -17 -51 -13
-65 4 -11 14 -40 21 -40 10 0 -14 50 -51 61 -45 7 5 27 6 46 3 20 -3 33 -1 33
5 0 15 -50 53 -61 46 -5 -3 -9 -1 -9 5 0 13 -37 33 -44 23z"/>
<path d="M1805 1991 c-2 -5 8 -17 23 -27 29 -19 115 -27 109 -9 -2 5 -20 9
-41 9 -20 -1 -36 2 -36 6 0 11 -49 30 -55 21z"/>
<path d="M1786 1941 c-3 -5 10 -21 28 -35 22 -16 37 -22 41 -15 4 5 18 9 33 7
14 -2 27 2 29 8 6 17 -26 25 -49 13 -13 -7 -23 -7 -27 -2 -11 17 -49 34 -55
24z"/>
<path d="M2035 1897 c14 -32 25 -64 25 -72 0 -8 5 -14 11 -12 18 3 47 -54 69
-134 10 -41 19 -65 19 -54 2 62 -71 237 -124 300 l-25 30 25 -58z"/>
<path d="M1765 1881 c-2 -5 10 -20 29 -34 25 -20 36 -23 45 -14 6 6 23 12 38
13 15 0 29 6 31 12 5 15 -54 16 -63 1 -5 -7 -12 -6 -23 4 -23 19 -50 28 -57
18z"/>
<path d="M1750 1811 c0 -5 16 -19 36 -30 34 -20 38 -21 55 -5 10 9 22 14 26
11 5 -3 15 -2 23 3 11 7 12 12 3 21 -8 8 -19 7 -44 -5 -29 -14 -34 -14 -49 -1
-18 16 -50 20 -50 6z"/>
<path d="M1854 1750 c-12 -5 -25 -13 -29 -19 -4 -8 -13 -6 -28 4 -24 17 -57
20 -57 5 0 -5 17 -18 38 -29 37 -19 38 -19 61 0 13 10 27 17 31 14 12 -7 24
15 14 25 -5 4 -19 4 -30 0z"/>
<path d="M1839 1671 c-22 -17 -28 -17 -49 -5 -32 17 -50 17 -50 0 0 -8 16 -20
35 -26 19 -6 35 -17 35 -23 0 -7 11 2 24 18 13 17 29 30 35 30 6 0 11 4 12 10
1 17 -17 16 -42 -4z"/>
<path d="M1490 791 c0 -5 18 -9 40 -9 23 -1 38 3 35 9 -8 12 -75 12 -75 0z"/>
<path d="M1230 780 c-59 -18 26 -25 300 -25 274 0 359 7 300 25 -14 5 -72 8
-130 7 -96 0 -99 -1 -35 -6 108 -9 43 -19 -135 -21 -160 -1 -237 9 -150 21 34
5 24 6 -40 7 -47 0 -96 -3 -110 -8z"/>
</g>
</svg>
